<svg width="1366" height="732" viewBox="0 0 1366 732" fill="none" xmlns="http://www.w3.org/2000/svg">
<path fill-rule="evenodd" clip-rule="evenodd" d="M1145.81 110.528C1047.73 75.4761 947.52 91.3205 892.15 182.829C836.78 274.337 862.508 447.944 664.5 471.222C466.492 494.5 441.591 542 399.457 622.798C299.188 815.081 0 667 0 667V0H1366V120.096C1366 120.096 1253.19 148.904 1145.81 110.528Z" fill="black"/>
<path fill-rule="evenodd" clip-rule="evenodd" d="M119 0H870.557C870.557 0 810.258 10.7299 773.273 65.3526C736.288 119.975 617.467 281.457 269.557 96.4601C151.153 33.5 119 0 119 0Z" fill="#0B24FB"/>
<circle cx="496" cy="339" r="66" fill="#0B24FB"/>
</svg>
